# xmcd
#
# Track frame offsets:
# 150
# 49132
# 62602
# 85645
# 105618
# 129918
# 151912
# 167929
# 186195
# 193366
# 212179
# 238572
# 257681
# 275463
# 288780
# 306439
# 331086
#
# Disc length: 4700 seconds
#
#
# Revision: 0
# Processed by: cddbd v1.5.1PL0 Copyright (c) Steve Scherf et al.
# Submitted via: FreeRIP 2.90 
#
DISCID=f1125a11
DTITLE=Marcos Witt - Marcos Witt
DYEAR=1900
DGENRE=Gospel
TTITLE0=Dios de Pactos
TTITLE1=Mi primer Amor
TTITLE2=Motivo de Mi Cancion
TTITLE3=Te alabare mi Buen Jesus
TTITLE4=Tu Mirada
TTITLE5=Tu fidelidad
TTITLE6=Yo te Busco
TTITLE7=Venció
TTITLE8=Cantaré al Señor
TTITLE9=Al Que es Digno
TTITLE10=Alas de Águila
TTITLE11=Amante de Ti
TTITLE12=Gracias
TTITLE13=Con todo mi Corazón
TTITLE14=De Glória en Glória
TTITLE15=Escucharte Hablar
TTITLE16=Como el Ciervo
EXTD=
EXTT0=
EXTT1=
EXTT2=
EXTT3=
EXTT4=
EXTT5=
EXTT6=
EXTT7=
EXTT8=
EXTT9=
EXTT10=
EXTT11=
EXTT12=
EXTT13=
EXTT14=
EXTT15=
EXTT16=
PLAYORDER=
